<?xml version="1.0" standalone="no"?>
<!DOCTYPE svg PUBLIC "-//W3C//DTD SVG 20010904//EN"
 "http://www.w3.org/TR/2001/REC-SVG-20010904/DTD/svg10.dtd">
<svg version="1.0" xmlns="http://www.w3.org/2000/svg"
 width="180.000000pt" height="180.000000pt" viewBox="0 0 180.000000 180.000000"
 preserveAspectRatio="xMidYMid meet">
<metadata>
Created by potrace 1.11, written by Peter Selinger 2001-2013
</metadata>
<g transform="translate(0.000000,180.000000) scale(0.100000,-0.100000)"
fill="#000000" stroke="none">
<path d="M431 1746 c-22 -30 -45 -58 -51 -61 -23 -14 -107 -218 -125 -305 -7
-36 -21 -85 -30 -110 -12 -32 -16 -64 -12 -114 4 -61 1 -76 -24 -130 -16 -34
-29 -71 -29 -84 0 -13 -23 -72 -50 -131 -57 -122 -62 -169 -31 -258 13 -38 28
-60 52 -76 25 -17 37 -36 50 -77 15 -50 20 -56 73 -85 32 -17 83 -52 115 -78
33 -26 75 -54 96 -63 35 -14 38 -14 52 5 8 12 22 21 32 21 9 0 22 5 29 12 16
16 25 4 25 -32 0 -17 4 -30 9 -30 4 0 8 6 8 13 0 7 11 23 24 34 30 26 49 108
40 174 -4 27 -4 49 0 49 10 0 50 -24 58 -35 20 -26 4 11 -38 89 -31 58 -43 92
-39 106 3 11 -1 44 -9 74 -14 47 -14 57 -1 82 10 20 11 32 3 41 -14 17 -6 196
10 216 7 8 14 33 16 55 3 22 10 51 17 64 7 12 13 32 14 43 4 36 34 95 47 95 9
0 9 -3 -2 -10 -10 -6 -11 -10 -3 -10 16 0 39 36 49 73 9 38 130 160 185 187
24 12 69 29 100 39 31 10 66 27 78 38 19 18 27 19 64 9 23 -6 45 -15 49 -21 4
-5 8 -6 8 -1 0 4 11 1 24 -7 13 -9 38 -15 55 -15 22 1 52 -13 97 -43 58 -39
69 -53 105 -123 l40 -80 -2 -115 c-3 -154 4 -170 149 -303 30 -29 28 -38 -18
-94 -22 -27 -40 -52 -40 -56 0 -16 17 -7 46 22 16 16 35 30 42 30 8 0 12 19
12 59 0 48 -3 61 -18 65 -30 10 -121 108 -130 140 -10 35 -4 106 8 106 4 0 10
35 14 78 3 42 8 109 12 147 6 65 4 75 -25 135 -17 35 -42 76 -56 90 -13 14
-25 34 -25 45 -3 59 2 110 11 128 8 15 8 22 -2 28 -7 4 -262 8 -566 9 l-552 1
-40 -55z m-15 -672 c68 -38 76 -49 44 -59 -11 -3 -20 -11 -20 -17 0 -6 -8 -16
-17 -23 -13 -10 -19 -34 -23 -94 -4 -44 -10 -84 -14 -88 -4 -4 -25 10 -45 33
-47 50 -85 145 -76 191 7 37 50 93 72 93 8 0 44 -16 79 -36z m104 -224 c0 -5
-4 -10 -10 -10 -5 0 -10 5 -10 10 0 6 5 10 10 10 6 0 10 -4 10 -10z m33 -85
c21 -44 25 -60 16 -71 -6 -8 -9 -24 -6 -36 4 -17 -1 -28 -19 -41 -43 -32 -77
0 -57 54 10 25 8 30 -13 44 -21 14 -24 21 -19 53 10 58 12 61 42 58 23 -3 33
-13 56 -61z m-361 -120 c17 -35 20 -51 12 -72 -14 -40 -40 -41 -48 -2 -9 49
-7 119 4 119 6 0 20 -20 32 -45z"/>
<path d="M1750 1730 c-21 -122 -29 -245 -17 -257 4 -3 7 1 7 10 0 19 13 21 41
7 18 -10 19 -6 19 150 0 151 -1 160 -19 160 -16 0 -21 -12 -31 -70z"/>
<path d="M1600 1736 c0 -9 5 -16 10 -16 6 0 10 4 10 9 0 6 -4 13 -10 16 -5 3
-10 -1 -10 -9z"/>
<path d="M1788 1314 c-10 -16 -15 -141 -5 -150 14 -15 18 5 15 82 -2 44 -6 74
-10 68z"/>
<path d="M878 1144 c-27 -8 -48 -19 -48 -24 0 -13 57 -13 65 0 8 13 128 13
141 0 12 -12 56 -1 51 14 -2 6 -16 11 -30 11 -14 -1 -23 3 -21 7 3 4 -13 8
-35 8 -22 0 -42 -6 -45 -12 -5 -10 -7 -10 -12 0 -7 14 -6 14 -66 -4z"/>
<path d="M713 1108 c-19 -25 -23 -37 -14 -42 5 -3 14 8 20 24 11 32 9 37 -6
18z"/>
<path d="M1477 1106 c-48 -13 -76 -31 -65 -41 3 -4 34 1 69 10 35 9 74 15 86
12 18 -3 23 0 21 12 -4 21 -49 24 -111 7z"/>
<path d="M940 1000 c-51 -14 -70 -22 -70 -29 1 -17 28 -36 52 -36 15 1 25 -2
23 -6 -8 -12 68 -19 82 -7 7 6 13 23 13 39 0 23 3 27 18 22 25 -9 53 -35 63
-58 7 -18 8 -18 8 -2 3 65 -94 105 -189 77z m10 -40 c0 -5 -5 -10 -11 -10 -5
0 -7 5 -4 10 3 6 8 10 11 10 2 0 4 -4 4 -10z m60 0 c0 -5 -4 -10 -10 -10 -5 0
-10 5 -10 10 0 6 5 10 10 10 6 0 10 -4 10 -10z"/>
<path d="M1400 973 c-36 -34 -33 -68 8 -76 31 -6 51 15 52 56 0 34 31 37 52 5
18 -26 51 -19 41 9 -10 27 -23 33 -75 33 -38 0 -54 -6 -78 -27z m30 -23 c0 -5
-7 -10 -16 -10 -8 0 -12 5 -9 10 3 6 10 10 16 10 5 0 9 -4 9 -10z"/>
<path d="M1593 915 c0 -44 2 -61 4 -37 2 23 2 59 0 80 -2 20 -4 1 -4 -43z"/>
<path d="M1591 804 c0 -11 3 -14 6 -6 3 7 2 16 -1 19 -3 4 -6 -2 -5 -13z"/>
<path d="M1581 714 c0 -11 3 -14 6 -6 3 7 2 16 -1 19 -3 4 -6 -2 -5 -13z"/>
<path d="M1660 675 c-7 -9 -11 -17 -9 -20 3 -2 10 5 17 15 14 24 10 26 -8 5z"/>
<path d="M1018 491 c18 -17 39 -31 45 -31 7 0 6 4 -3 11 -16 11 1 10 95 -10
29 -6 62 -7 80 -2 30 8 30 8 -14 16 -24 4 -58 9 -75 11 -60 8 -136 23 -148 30
-7 4 2 -7 20 -25z"/>
<path d="M1090 440 c8 -5 20 -10 25 -10 6 0 3 5 -5 10 -8 5 -19 10 -25 10 -5
0 -3 -5 5 -10z"/>
<path d="M1350 313 c0 -5 7 -16 14 -26 16 -20 32 -6 22 18 -5 15 -36 21 -36 8z"/>
<path d="M1714 213 c-14 -15 -33 -46 -44 -70 l-19 -44 24 -39 c14 -22 25 -44
25 -50 0 -14 9 -13 24 3 17 16 46 132 46 179 0 48 -23 56 -56 21z"/>
<path d="M951 201 c-18 -12 -7 -27 29 -39 25 -9 31 -8 40 8 14 26 12 34 -4 21
-11 -9 -15 -9 -19 1 -4 10 -7 10 -15 -1 -8 -12 -11 -11 -13 2 -3 11 -8 14 -18
8z"/>
<path d="M1120 115 c0 -46 14 -46 17 0 1 19 -3 35 -8 35 -5 0 -9 -16 -9 -35z"/>
</g>
</svg>
